<?xml version="1.0" ?><svg viewBox="0 0 129.88 129.88" xmlns="http://www.w3.org/2000/svg" xmlns:xlink="http://www.w3.org/1999/xlink"><defs><style>.cls-1{fill:url(#linear-gradient);}.cls-2{fill:url(#linear-gradient-2);}.cls-3{fill:#fff;}.cls-4{fill:none;stroke:#fff;stroke-linecap:round;stroke-linejoin:round;stroke-width:4.6px;}</style><linearGradient gradientUnits="userSpaceOnUse" id="linear-gradient" x1="21.03" x2="108.83" y1="89.82" y2="39.13"><stop offset="0.02" stop-color="red"/><stop offset="1" stop-color="#9e005d"/></linearGradient><linearGradient id="linear-gradient-2" x1="34.28" x2="95.58" xlink:href="#linear-gradient" y1="64.47" y2="64.47"/></defs><title/><g data-name="Layer 1" id="Layer_1"><path class="cls-1" d="M86.32,13.78H43.53A13.64,13.64,0,0,0,31.72,20.6L10.33,57.65a13.62,13.62,0,0,0,0,13.64l21.39,37.05a13.64,13.64,0,0,0,11.81,6.82H86.32a13.64,13.64,0,0,0,11.81-6.82l21.39-37a13.62,13.62,0,0,0,0-13.64l-21.39-37A13.64,13.64,0,0,0,86.32,13.78Z"/><path class="cls-2" d="M61.66,95.12a3.53,3.53,0,0,1-3.52-3.52V86.13a22.42,22.42,0,0,1-3.73-1.55l-3.87,3.87a3.52,3.52,0,0,1-5,0L41,83.84a3.54,3.54,0,0,1,0-5L44.81,75a23.25,23.25,0,0,1-1.54-3.73H37.8a3.53,3.53,0,0,1-3.52-3.53V61.21a3.53,3.53,0,0,1,3.52-3.52h5.47A23,23,0,0,1,44.81,54L41,50.09a3.54,3.54,0,0,1,0-5l4.61-4.61a3.52,3.52,0,0,1,5,0l3.87,3.87a21.73,21.73,0,0,1,3.73-1.55V37.34a3.53,3.53,0,0,1,3.52-3.52h6.53a3.53,3.53,0,0,1,3.52,3.52v5.47a22.07,22.07,0,0,1,3.73,1.55l3.87-3.87a3.51,3.51,0,0,1,5,0l4.62,4.61a3.51,3.51,0,0,1,0,5L85,54a23,23,0,0,1,1.55,3.74h5.46a3.53,3.53,0,0,1,3.53,3.52v6.52a3.54,3.54,0,0,1-3.53,3.53H86.59A24.25,24.25,0,0,1,85,75l3.87,3.86a3.53,3.53,0,0,1,1,2.5,3.5,3.5,0,0,1-1,2.49l-4.61,4.61a3.51,3.51,0,0,1-2.49,1,3.47,3.47,0,0,1-2.49-1l-3.87-3.86a23.25,23.25,0,0,1-3.73,1.54V91.6a3.53,3.53,0,0,1-3.52,3.52Zm3.26-38.69a8,8,0,1,0,8,8A8,8,0,0,0,64.92,56.43Z"/><path class="cls-3" d="M68.19,35.67a1.67,1.67,0,0,1,1.67,1.67v6a1.11,1.11,0,0,0,.81,1A20.88,20.88,0,0,1,75,46.24a1.22,1.22,0,0,0,.56.14,1.1,1.1,0,0,0,.76-.31l4.27-4.27a1.67,1.67,0,0,1,2.36,0l4.62,4.61a1.68,1.68,0,0,1,0,2.37l-4.27,4.27a1.1,1.1,0,0,0-.18,1.3A20.85,20.85,0,0,1,85,58.73a1.09,1.09,0,0,0,1,.8h6a1.68,1.68,0,0,1,1.68,1.68v6.52a1.68,1.68,0,0,1-1.68,1.68H86a1.09,1.09,0,0,0-1,.81,20.88,20.88,0,0,1-1.81,4.36,1.1,1.1,0,0,0,.17,1.32l4.27,4.26a1.68,1.68,0,0,1,0,2.37L83,87.14a1.67,1.67,0,0,1-2.36,0l-4.27-4.26a1.09,1.09,0,0,0-.77-.32,1,1,0,0,0-.53.14,20.83,20.83,0,0,1-4.38,1.81,1.11,1.11,0,0,0-.81,1v6a1.67,1.67,0,0,1-1.67,1.67H61.66A1.67,1.67,0,0,1,60,91.6v-6a1.11,1.11,0,0,0-.81-1,20.33,20.33,0,0,1-4.36-1.8,1.09,1.09,0,0,0-1.32.17l-4.26,4.26a1.67,1.67,0,0,1-1.19.49,1.63,1.63,0,0,1-1.18-.49l-4.61-4.61a1.67,1.67,0,0,1,0-2.37l4.26-4.26a1.09,1.09,0,0,0,.18-1.3,20.52,20.52,0,0,1-1.81-4.38,1.11,1.11,0,0,0-1.06-.81h-6a1.68,1.68,0,0,1-1.67-1.68V61.21a1.68,1.68,0,0,1,1.67-1.68h6a1.09,1.09,0,0,0,1.05-.8,20.44,20.44,0,0,1,1.81-4.36,1.1,1.1,0,0,0-.17-1.32l-4.26-4.27a1.67,1.67,0,0,1,0-2.37l4.61-4.61a1.63,1.63,0,0,1,1.18-.49,1.67,1.67,0,0,1,1.19.49l4.26,4.27a1.08,1.08,0,0,0,.77.31,1.09,1.09,0,0,0,.53-.13,20.34,20.34,0,0,1,4.38-1.82,1.11,1.11,0,0,0,.81-1v-6a1.67,1.67,0,0,1,1.67-1.67h6.53M64.92,74.36A9.89,9.89,0,1,0,55,64.47a9.89,9.89,0,0,0,9.88,9.89M68.19,32H61.66a5.38,5.38,0,0,0-5.37,5.37v4.15c-.51.2-1,.4-1.51.63l-2.93-2.93a5.36,5.36,0,0,0-7.6,0L39.64,43.8a5.38,5.38,0,0,0,0,7.6l2.93,2.93c-.22.49-.43,1-.62,1.51H37.8a5.38,5.38,0,0,0-5.37,5.37v6.52a5.38,5.38,0,0,0,5.37,5.38H42c.19.5.4,1,.62,1.5l-2.93,2.94a5.38,5.38,0,0,0,0,7.6l4.61,4.61a5.38,5.38,0,0,0,7.6,0l2.93-2.94c.5.23,1,.44,1.51.63V91.6A5.38,5.38,0,0,0,61.66,97h6.53a5.38,5.38,0,0,0,5.37-5.37V87.45c.51-.19,1-.4,1.51-.63L78,89.76a5.37,5.37,0,0,0,3.8,1.57,5.31,5.31,0,0,0,3.8-1.58l4.61-4.6a5.36,5.36,0,0,0,0-7.6l-2.93-2.94c.22-.49.43-1,.62-1.5h4.15a5.38,5.38,0,0,0,5.37-5.38V61.21a5.38,5.38,0,0,0-5.37-5.37H87.9c-.19-.51-.4-1-.62-1.51l2.93-2.93a5.37,5.37,0,0,0,0-7.61l-4.61-4.6a5.36,5.36,0,0,0-7.6,0l-2.93,2.93c-.5-.23-1-.44-1.51-.63V37.34A5.38,5.38,0,0,0,68.19,32ZM64.92,70.66a6.19,6.19,0,1,1,6.2-6.19,6.19,6.19,0,0,1-6.2,6.19Z"/><path class="cls-4" d="M66,49.41A14.27,14.27,0,0,1,80.26,63.68"/></g></svg>